Coordinates
version=1
nRows=7
nColumns=33
inDegrees=yes

Units are S.I. units (second, meters, Newtons, ...)
Angles are in degrees.

endheader
time	ground_thorax_rot_x	ground_thorax_rot_y	ground_thorax_rot_z	ground_thorax_tx	ground_thorax_ty	ground_thorax_tz	clav_prot_r	clav_elev_r	scapula_abduction_r	scapula_elevation_r	scapula_upward_rot_r	scapula_winging_r	shoulder_elv_r	plane_of_elev_r	axial_rot_r	elbow_flexion_r	pro_sup_r	wrist_flex_r	wrist_dev_r	clav_prot_l	clav_elev_l	scapula_abduction_l	scapula_elevation_l	scapula_upward_rot_l	scapula_winging_l	shoulder_elv_l	plane_of_elev_l	axial_rot_l	elbow_flexion_l	pro_sup_l	wrist_flex_l	wrist_dev_l
      8.06000000	    -42.51250646	     -6.82422177	     -0.31536928	    -91.46037607	    878.68187716	     -2.79423626	     -2.30982628	    -45.00000000	     45.00000000	    -45.00000000	     29.75543975	    614.52743790	  -2092.18177956	     21.10572571	   -179.99999979	   1446.20680014	   -103.10007425	     20.64488650	     14.16109716	     -5.78264285	     42.76347000	    -45.00000000	    -45.00000000	     45.00000000	   1914.36817511	  -2438.80932164	     10.95622017	    179.99999979	   -348.44091290	   -153.68575168	     13.35672349	    -13.69706133
      8.07000000	    -42.59531929	     -6.95357576	     -0.29594809	    -86.61189948	    875.19209446	     -2.45918459	     -2.66150790	    -45.00000000	     45.00000000	    -45.00000000	     30.03981777	    614.38164054	  -2092.88649384	     21.07080862	   -179.99999979	   1446.46548630	   -106.58216309	     19.99076577	     14.47189979	     -5.75583347	     42.83270337	    -45.00000000	    -45.00000000	     45.00000000	   1914.44890597	  -2439.51548458	     10.88601836	    179.99999979	   -348.55800247	   -153.40497422	     13.05750921	    -13.48955070
      8.08000000	    -42.69914496	     -7.09707919	     -0.33159756	    -81.75289653	    871.57763993	     -2.13570166	     -2.91939015	    -45.00000000	     45.00000000	    -45.00000000	     30.19243163	    614.38158637	  -2093.64590572	     20.97323828	   -179.99999979	   1446.77881764	   -109.92379513	     19.50318461	     14.74129241	     -5.80228161	     42.92539837	    -45.00000000	    -45.00000000	     45.00000000	   1914.49713124	  -2440.14304103	     10.80854123	    179.99999979	   -348.60146392	   -153.21777669	     12.82868982	    -13.31415493
      8.09000000	    -42.83366839	     -7.31280444	     -0.27524570	    -76.88759079	    867.87287492	     -1.81454859	     -3.02212674	    -45.00000000	     45.00000000	    -45.00000000	     30.00212739	    614.47881670	  -2094.41336236	     20.79807116	   -179.99999979	   1447.06566397	   -113.23218803	     19.09779287	     14.98888547	     -6.07833046	     43.00378895	    -45.00000000	    -45.00000000	     45.00000000	   1914.50015912	  -2440.67251892	     10.61621397	    179.99999979	   -348.66403653	   -152.95847179	     12.67129795	    -13.21391739
      8.10000000	    -42.94772038	     -7.34856723	     -0.38061170	    -72.02401137	    864.10891745	     -1.48578488	     -3.41608419	    -45.00000000	     45.00000000	    -45.00000000	     30.30193562	    614.28647998	  -2095.26261267	     20.74626760	   -179.99999979	   1447.28302479	   -116.18417217	     18.52900571	     15.14502436	     -6.10512154	     43.12380166	    -45.00000000	    -45.00000000	     45.00000000	   1914.54159013	  -2441.35069750	     10.53614547	    179.99999979	   -348.78312780	   -152.88301556	     12.38403810	    -12.95207273
      8.11000000	    -43.06303305	     -7.40182693	     -0.43976427	    -67.16174121	    860.29645250	     -1.13761409	     -3.76363996	    -45.00000000	     45.00000000	    -45.00000000	     30.58194694	    614.20687667	  -2096.04329451	     20.58511835	   -179.99999979	   1447.59624824	   -118.96285933	     18.00851260	     15.27568029	     -6.22835126	     43.26498887	    -45.00000000	    -45.00000000	     45.00000000	   1914.52455408	  -2441.98979049	     10.35465314	    179.99999979	   -348.86846737	   -152.82911503	     12.17911875	    -12.76845434
      8.12000000	    -43.18178432	     -8.23843932	      1.06154294	    -62.32494006	    856.46903011	     -0.76243122	     -2.01045611	    -45.00000000	     45.00000000	    -45.00000000	     26.11812744	    614.34253256	  -2097.07675249	     21.04707008	   -179.99999979	   1446.89863534	   -119.99997460	     18.53998262	     15.41336022	     -2.22144286	     45.00000000	    -45.00000000	    -43.51709296	     31.16856450	   1908.02340244	  -2444.64810908	     10.98199989	    179.99999979	   -351.94744829	   -153.03151869	     13.39633796	    -14.46892661
